<svg width="29" height="23" viewBox="0 0 29 23" fill="none" xmlns="http://www.w3.org/2000/svg">
<path d="M25.1814 3.18635C24.5642 2.61148 23.8315 2.15545 23.025 1.84432C22.2184 1.53319 21.354 1.37305 20.481 1.37305C19.608 1.37305 18.7435 1.53319 17.937 1.84432C17.1305 2.15545 16.3977 2.61148 15.7806 3.18635L14.4997 4.37885L13.2189 3.18635C11.9723 2.0257 10.2815 1.37365 8.51849 1.37365C6.75549 1.37365 5.0647 2.0257 3.81807 3.18635C2.57144 4.347 1.87109 5.92119 1.87109 7.5626C1.87109 9.20401 2.57144 10.7782 3.81807 11.9389L14.4997 21.8838L25.1814 11.9389C25.7989 11.3643 26.2887 10.682 26.6228 9.93113C26.957 9.18023 27.129 8.3754 27.129 7.5626C27.129 6.7498 26.957 5.94497 26.6228 5.19408C26.2887 4.44318 25.7989 3.76095 25.1814 3.18635Z" stroke="#F6E5E3" stroke-width="2" stroke-linecap="round" stroke-linejoin="round"/>
</svg>
