<svg width="28" height="27" viewBox="0 0 28 27" fill="none" xmlns="http://www.w3.org/2000/svg">
<path d="M1.16602 1.125H5.83268L8.95935 16.1888C9.06603 16.7067 9.35824 17.172 9.78482 17.5031C10.2114 17.8342 10.7452 18.0101 11.2927 18H22.6327C23.1802 18.0101 23.714 17.8342 24.1405 17.5031C24.5671 17.172 24.8593 16.7067 24.966 16.1888L26.8327 6.75H6.99935M11.666 23.625C11.666 24.2463 11.1437 24.75 10.4993 24.75C9.85502 24.75 9.33268 24.2463 9.33268 23.625C9.33268 23.0037 9.85502 22.5 10.4993 22.5C11.1437 22.5 11.666 23.0037 11.666 23.625ZM24.4994 23.625C24.4994 24.2463 23.977 24.75 23.3327 24.75C22.6884 24.75 22.166 24.2463 22.166 23.625C22.166 23.0037 22.6884 22.5 23.3327 22.5C23.977 22.5 24.4994 23.0037 24.4994 23.625Z" stroke="#F6E5E3" stroke-width="2" stroke-linecap="round" stroke-linejoin="round"/>
</svg>
